<?xml version="1.0" encoding="UTF-8" ?>
<!DOCTYPE svg PUBLIC "-//W3C//DTD SVG 1.1//EN" "http://www.w3.org/Graphics/SVG/1.1/DTD/svg11.dtd">
<svg width="67pt" height="85pt" viewBox="0 0 67 85" version="1.1" xmlns="http://www.w3.org/2000/svg">
<path fill="#00b5ef" d=" M 16.26 0.00 L 16.77 0.00 C 27.40 6.56 39.09 11.22 50.14 17.04 C 49.10 19.12 48.05 21.18 47.00 23.25 C 45.97 25.27 44.95 27.30 43.93 29.32 C 40.46 29.04 38.08 26.34 35.26 24.64 C 27.62 19.06 19.26 14.41 12.59 7.62 C 13.83 5.08 15.25 2.63 16.26 0.00 Z" />
<path fill="#00aaeb" d=" M 0.00 32.44 C 4.43 24.30 8.39 15.89 12.59 7.62 C 19.26 14.41 27.62 19.06 35.26 24.64 C 38.08 26.34 40.46 29.04 43.93 29.32 C 40.88 35.30 37.84 41.29 34.73 47.24 C 34.39 48.16 34.04 49.08 33.70 50.00 L 32.67 50.55 C 21.61 45.02 11.02 38.53 0.00 32.90 L 0.00 32.44 Z" />
<path fill="#004383" d=" M 43.93 29.32 C 44.95 27.30 45.97 25.27 47.00 23.25 C 48.70 24.13 50.40 25.02 52.09 25.91 C 50.92 27.46 49.74 29.01 48.55 30.55 C 44.21 36.40 39.67 42.11 35.54 48.12 C 35.34 47.90 34.94 47.46 34.73 47.24 C 37.84 41.29 40.88 35.30 43.93 29.32 Z" />
<path fill="#00a0e7" d=" M 52.09 25.91 C 56.94 28.46 61.78 31.03 66.61 33.61 C 63.71 35.21 60.78 36.77 57.88 38.38 C 54.25 36.45 50.92 33.94 48.55 30.55 C 49.74 29.01 50.92 27.46 52.09 25.91 Z" />
<path fill="#0078d7" d=" M 35.54 48.12 C 39.67 42.11 44.21 36.40 48.55 30.55 C 50.92 33.94 54.25 36.45 57.88 38.38 C 52.12 41.56 46.11 44.24 40.33 47.37 C 38.82 48.00 37.12 49.32 35.54 48.12 Z" />
<path fill="#006bcb" d=" M 57.88 38.38 C 60.78 36.77 63.71 35.21 66.61 33.61 L 67.00 33.40 L 67.00 67.49 C 60.91 70.77 54.73 73.90 48.60 77.12 C 45.05 74.09 41.36 71.19 38.19 67.74 C 35.47 64.83 31.98 62.81 28.19 61.66 C 25.40 60.91 23.41 58.78 21.64 56.64 C 25.55 54.59 29.54 52.70 33.44 50.65 L 33.70 50.00 C 34.04 49.08 34.39 48.16 34.73 47.24 C 34.94 47.46 35.34 47.90 35.54 48.12 C 37.12 49.32 38.82 48.00 40.33 47.37 C 46.11 44.24 52.12 41.56 57.88 38.38 Z" />
<path fill="#0061bd" d=" M 9.49 62.80 C 13.54 60.74 17.58 58.68 21.64 56.64 C 23.41 58.78 25.40 60.91 28.19 61.66 C 31.98 62.81 35.47 64.83 38.19 67.74 C 41.36 71.19 45.05 74.09 48.60 77.12 C 45.95 78.52 43.30 79.91 40.63 81.28 C 38.75 77.09 35.43 73.85 32.97 70.04 C 31.84 68.59 30.86 66.65 28.95 66.13 C 26.27 66.07 23.53 67.14 20.92 66.13 C 17.14 64.93 13.27 64.01 9.49 62.80 Z" />
<path fill="#0055af" d=" M 0.00 67.35 C 3.31 66.17 6.33 64.31 9.49 62.80 C 13.27 64.01 17.14 64.93 20.92 66.13 C 23.53 67.14 26.27 66.07 28.95 66.13 C 30.86 66.65 31.84 68.59 32.97 70.04 C 35.43 73.85 38.75 77.09 40.63 81.28 C 38.26 82.50 35.92 83.78 33.54 85.00 L 32.90 85.00 L 33.90 84.65 C 22.51 79.17 11.37 73.18 0.00 67.67 L 0.00 67.35 Z" />
</svg>
