<?xml version="1.0" encoding="UTF-8" standalone="no"?>
<!-- Created with Inkscape (http://www.inkscape.org/) -->
<svg id="svg4822" xmlns:rdf="http://www.w3.org/1999/02/22-rdf-syntax-ns#" xmlns="http://www.w3.org/2000/svg" height="33.637mm" width="179.21mm" version="1.1" xmlns:cc="http://creativecommons.org/ns#" xmlns:dc="http://purl.org/dc/elements/1.1/" viewBox="0 0 634.99775 119.18652">
<metadata id="metadata4827">
<rdf:RDF>
<cc:Work rdf:about="">
<dc:format>image/svg+xml</dc:format>
<dc:type rdf:resource="http://purl.org/dc/dcmitype/StillImage"/>
<dc:title/>
</cc:Work>
</rdf:RDF>
</metadata>
<g id="layer1" transform="translate(967.55 -137.14)" fill="#777">
<rect id="rect4717" ry="10.411" height="33.742" width="47.348" y="179.59" x="-967.55"/>
<rect id="rect4717-3" ry="10.411" height="33.742" width="47.348" y="222.58" x="-967.55"/>
<rect id="rect4717-4" ry="10.411" height="33.742" width="106.67" y="179.56" x="-914.35"/>
<rect id="rect4717-3-1" ry="10.411" height="33.742" width="47.348" y="137.14" x="-967.55"/>
<rect id="rect4717-4-8" ry="10.411" height="33.742" width="106.67" y="137.14" x="-914.76"/>
<rect id="rect4717-4-8-3" ry="10.411" height="33.742" width="106.67" y="222.04" x="-914.48"/>
<g id="text4794" transform="translate(10)">
<path id="path5391" d="m-760.07 204.07q-1.0634-2.4003-2.0053-3.8587-.91149-1.4888-2.3699-1.4888-2.856 0-2.856 11.698 0 2.1572.12153 5.2259t.12153 3.6156q0 5.6816 1.2761 7.14 1.2761 1.428 3.9802 2.7345t2.7041 3.9194q0 7.3527-18.169 7.3527-15.678 0-15.678-6.8362 0-2.3091.88111-3.0687.91149-.78996 2.9168-1.4888 2.0357-.72919 3.1902-2.066 1.1546-1.3672 1.4888-4.8309 1.0026-9.996 1.5495-18.868.57728-8.9022.57728-21.207 0-10.239-1.8838-14.189-.48613-1.0026-3.0687-2.461-2.5522-1.4888-3.9194-2.7041-1.3369-1.2457-1.3369-3.4333 0-4.8309 6.2589-6.8058 6.2589-2.0053 15.252-2.0053 5.4082 0 8.4465.48613t4.5575 1.4888q1.5192.97226 2.1268 1.9445.63805.97226 2.9168 4.8917 1.2761 2.1268 5.2259 10.421 3.9498 8.2642 6.897 13.156 2.9775 4.8613 5.4386 5.4386 1.8534 0 3.889-3.3118 2.066-3.3118 5.2563-10.178 3.1902-6.8666 4.284-8.9022 1.8838-3.4941 3.8283-7.0185t3.9498-5.1955q2.0357-1.6711 5.5601-2.4306 3.5244-.78996 9.5707-.78996 17.926 0 17.926 8.2034 0 2.1268-.75957 3.0383-.7292.88111-3.1598 3.1598t-2.9472 4.0106q-.63804 2.2787-1.2457 10.634-.60767 8.325-.60767 13.126 0-.78996 1.2457 27.132.12153 3.0383 1.1849 4.7094 1.0938 1.6711 3.0687 3.0687 1.9749 1.3672 2.7649 2.218.82034.85073.82034 2.7041 0 4.9524-6.5931 6.4716-6.5931 1.4888-15.951 1.4888-9.4492 0-15.799-1.3976-6.3501-1.428-6.3501-6.0766 0-1.4584.72919-2.4914.7292-1.033 2.3395-2.3395 1.6103-1.3369 2.3699-2.1572.75958-.82034 1.033-2.0964.27345-1.0938.69881-5.6816.42536-4.6182.42536-8.6288 0-9.2061-2.4914-9.2061-1.7622 0-3.6156 2.7041-1.823 2.6737-3.5548 6.502-1.7318 3.7979-3.646 8.0819-.48613 1.0026-3.0383 7.0489-2.5218 6.0462-4.4359 9.2061-1.8838 3.1598-3.7371 3.1598-1.2761-.1823-2.1876-.94187-.88111-.78996-2.7345-4.1929-1.8534-3.4333-5.5297-11.637l-7.2008-16.194z"/>
<path id="path5393" d="m-625.84 151.81q7.3527 0 11.485-.51651 4.1321-.51651 6.6235-1.2457t2.9168-.72919q3.251 0 5.5297 3.0687 2.3091 3.0687 3.4333 7.2616t1.1242 7.3223q0 3.646-1.5799 6.3197-1.5799 2.6433-4.8917 2.6433-3.0991 0-4.7094-2.0357-1.5799-2.0357-3.2206-4.3448-1.6103-2.3091-5.5601-3.9194-3.9194-1.6407-12.032-1.6407-5.9247 0-8.4465.78997-2.5218.78996-3.251 2.8864t-.7292 6.897v6.2285q0 3.9498.42537 5.3474.42536 1.3672 1.9141 1.7622 1.4888.36459 5.6209.36459 3.1598 0 4.2536-1.7622t1.6103-5.1955q.51652-3.4637 1.4584-5.1651.97226-1.7015 3.889-1.7015 4.679 0 6.1678 6.1374 1.5192 6.107 1.5192 12.791 0 3.7979-.63804 8.3554-.60766 4.5271-2.461 8.1123-1.8534 3.5548-5.2259 3.5548-2.4914 0-3.1294-1.3065-.60767-1.3369-1.2761-4.8005-.63804-3.4941-2.3091-5.2259-1.6407-1.7318-5.8639-1.7318-3.3725 0-4.2536 2.2787-.85073 2.2787-.85073 6.4412 0 8.6288.66843 12.062.69881 3.4029 2.8256 4.3144 2.1572.91149 7.7173.91149h3.0991q8.6896 0 13.156-2.3699 4.4663-2.4003 6.4412-5.8336 2.0053-3.4333 3.8587-6.3804 1.8534-2.9472 5.0436-2.9472 2.7649 0 4.3752 2.4914t1.6103 5.469q0 4.1929-1.8838 9.8138-1.8838 5.5905-4.679 9.7226-2.7649 4.1017-5.1347 4.1017-.12154 0-5.4386-.69881-5.2867-.66843-10.482-.66843h-51.165q-8.325 0-8.325-5.3474 0-2.7041 3.0079-4.3144 3.0383-1.6407 4.4663-3.0991 1.4584-1.4888 1.8534-7.14 1.1242-17.136 1.1242-21.906 0 0-.75957-21.025-.21269-5.712-1.6103-8.2642-1.3672-2.5826-3.0687-3.4941-1.7015-.94187-3.4941-2.1876-1.7622-1.2457-1.7622-4.1017 0-6.4716 10.695-6.4716.85073 0 2.3699.0608t2.0964.0608h35.852z"/>
<path id="path5395" d="m-494.46 218.5q0 2.9776.72919 4.5575.7292 1.5799 3.1295 2.9168 2.3091 1.2457 3.251 2.1876.97226.91149.97226 3.0383 0 3.7675-4.4056 6.502-4.4056 2.7041-20.357 2.7041-21.42 0-21.42-8.4465 0-2.8864 1.3976-4.041 1.428-1.1849 3.1902-2.5826 1.7622-1.428 2.9472-5.3474 1.1849-3.9194 1.1849-12.305 0-3.251-.63805-4.5575-.60766-1.3369-2.0357-1.6103-1.428-.30383-5.0436-.30383-8.0211 0-10.999.39498-2.9472.36459-3.889 1.7622-.91149 1.3976-.91149 5.0436v4.4967q0 7.3223 1.3065 9.4491 1.3369 2.0964 3.8586 3.9194 2.5522 1.7926 2.5522 4.9221 0 5.6209-7.8388 7.4135-7.8084 1.7926-16.316 1.7926-8.0819 0-15.556-1.7622-7.4742-1.7622-7.4742-7.2008 0-3.3118 3.9802-5.2259 2.3395-1.1242 3.1902-1.8534.88111-.75958 1.5799-3.1902.69881-2.4306 1.0026-7.5654.33422-5.1347.33422-15.131 0-13.095-.1823-19.202-.15192-6.107-.60766-8.5984-.45575-2.5218-1.185-3.1598-.72919-.63804-3.1294-1.9141-2.0357-1.0938-3.0687-2.0053-1.033-.94187-1.033-2.5826 0-6.1982 9.1757-8.3857 9.1757-2.1876 18.564-2.1876 6.9274 0 13.308 1.6103 6.3804 1.6103 6.3804 6.4716 0 2.6129-1.1546 3.9498-1.1242 1.3369-3.8283 3.0079-1.7014.94187-2.461 2.1572-.75958 1.1849-1.0938 3.9498-.30383 2.7345-.30383 8.2034 0 3.9194 1.3368 5.0132 1.3672 1.0938 4.6182 1.0938h3.251 6.3501q3.7979 0 5.4993-.45574 1.7318-.45575 2.0964-1.3976.3646-.97226.3646-3.251 0-9.0238-1.0026-11.697-1.0026-2.7041-2.7345-3.6156-2.5218-1.4888-3.5852-2.5218-1.033-1.0634-1.033-3.1902 0-2.218 1.3672-4.1929t6.7147-3.5548q5.3474-1.5799 16.194-1.5799 22.392 0 22.392 8.8111 0 3.9194-3.8283 5.8639-2.3699 1.033-3.2814 2.1268-.88111 1.0634-1.3672 5.1955-.45574 4.1321-.45574 13.703v32.358z"/>
<path id="path5397" d="m-434.15 201.34q-3.889 0-5.6513.60766-1.7622.57728-2.2787 2.0053-.51652 1.3976-.51652 4.3448v4.6182q0 7.3223 1.3065 9.4491 1.3368 2.0964 3.8586 3.9194 2.5522 1.7926 2.5522 4.9221 0 5.6209-7.8388 7.4135-7.8085 1.7926-16.316 1.7926-8.0819 0-15.556-1.7622-7.4742-1.7622-7.4742-7.2008 0-3.3118 3.9802-5.2259 2.3395-1.1242 3.1902-1.8534.88111-.75958 1.5799-3.1902.69881-2.4306 1.0026-7.5654.33421-5.1347.33421-15.131 0-13.095-.1823-19.202-.15191-6.107-.60766-8.5984-.45574-2.5218-1.1849-3.1598-.72919-.63804-3.1295-1.9141-2.0357-1.0938-3.0687-2.0053-1.033-.94187-1.033-2.5826 0-6.1982 9.1757-8.3857 9.1757-2.1876 18.564-2.1876 6.9274 0 13.308 1.6103 6.3805 1.6103 6.3805 6.4716 0 2.6129-1.1546 3.9498-1.1242 1.3369-3.8283 3.0079-1.7015.94187-2.461 2.1572-.75958 1.1849-1.0938 3.9498-.30383 2.7345-.30383 8.2034 0 3.9498 1.3065 5.0436 1.3368 1.0634 4.6486 1.0634h2.8864q1.7926-10.695 7.5958-18.807 5.8336-8.1427 15.07-12.579 9.2668-4.4663 20.995-4.4663 12.153 0 21.299 4.6486 9.1757 4.6486 14.979 11.971 5.8032 7.2919 8.5376 15.222 2.7345 7.93 2.7345 14.462 0 13.065-5.9551 23.213-5.9551 10.118-16.346 15.678-10.391 5.5297-23 5.5297-11.88 0-21.967-5.0132t-16.498-14.037q-6.4108-9.0238-7.8388-20.387zm38.343-32.723q-4.4663 0-5.5905 3.4637t-1.1242 9.8441q0 4.3144 1.428 11.09 1.4584 6.745 4.1929 13.52 2.7649 6.7754 6.6539 11.242 3.889 4.4663 8.6288 4.4663 3.1902 0 4.7094-1.5192 1.5495-1.5495 1.9445-4.1929.42536-2.6737.42536-7.5958 0-6.6235-2.4914-16.255-2.461-9.6618-7.292-16.863-4.8005-7.2008-11.485-7.2008z"/>
</g>
</g>
</svg>
